<?xml version="1.0" standalone="no"?>
<!DOCTYPE svg PUBLIC "-//W3C//DTD SVG 20010904//EN"
 "http://www.w3.org/TR/2001/REC-SVG-20010904/DTD/svg10.dtd">
<svg version="1.0" xmlns="http://www.w3.org/2000/svg"
 width="64.000000pt" height="64.000000pt" viewBox="0 0 64.000000 64.000000"
 preserveAspectRatio="xMidYMid meet">

<g transform="translate(0.000000,64.000000) scale(0.100000,-0.100000)"
fill="#000000" stroke="none">
<path d="M135 544 c-46 -24 -63 -43 -81 -90 -31 -81 -1 -160 99 -262 34 -35
86 -79 115 -99 l52 -36 53 36 c28 20 80 64 114 99 100 103 130 181 98 263 -20
53 -67 93 -119 102 -47 7 -78 -2 -116 -33 l-31 -27 -22 20 c-50 46 -108 56
-162 27z m152 -68 l33 -36 34 38 c31 33 39 37 85 37 41 0 55 -5 80 -29 79 -76
30 -203 -125 -326 l-66 -53 -36 19 c-51 27 -164 141 -187 189 -53 110 3 212
110 200 30 -3 48 -13 72 -39z"/>
</g>
</svg>
